<svg width="118" height="88" viewBox="0 0 118 88" fill="none" xmlns="http://www.w3.org/2000/svg">
<g filter="url(#filter0_d_51_8)">
<rect x="4" width="110" height="80" rx="10" fill="#090728"/>
</g>
<path d="M40.0568 12.2727H41.3182L44.2841 19.517H44.3864L47.3523 12.2727H48.6136V21H47.625V14.3693H47.5398L44.8125 21H43.858L41.1307 14.3693H41.0455V21H40.0568V12.2727ZM58.0962 16.6364C58.0962 17.5568 57.93 18.3523 57.5977 19.0227C57.2653 19.6932 56.8093 20.2102 56.2298 20.5739C55.6502 20.9375 54.9883 21.1193 54.244 21.1193C53.4996 21.1193 52.8377 20.9375 52.2582 20.5739C51.6786 20.2102 51.2227 19.6932 50.8903 19.0227C50.5579 18.3523 50.3917 17.5568 50.3917 16.6364C50.3917 15.7159 50.5579 14.9205 50.8903 14.25C51.2227 13.5795 51.6786 13.0625 52.2582 12.6989C52.8377 12.3352 53.4996 12.1534 54.244 12.1534C54.9883 12.1534 55.6502 12.3352 56.2298 12.6989C56.8093 13.0625 57.2653 13.5795 57.5977 14.25C57.93 14.9205 58.0962 15.7159 58.0962 16.6364ZM57.0735 16.6364C57.0735 15.8807 56.9471 15.2429 56.6942 14.723C56.4442 14.2031 56.1048 13.8097 55.6758 13.5426C55.2496 13.2756 54.7724 13.142 54.244 13.142C53.7156 13.142 53.2369 13.2756 52.8079 13.5426C52.3817 13.8097 52.0423 14.2031 51.7894 14.723C51.5394 15.2429 51.4144 15.8807 51.4144 16.6364C51.4144 17.392 51.5394 18.0298 51.7894 18.5497C52.0423 19.0696 52.3817 19.4631 52.8079 19.7301C53.2369 19.9972 53.7156 20.1307 54.244 20.1307C54.7724 20.1307 55.2496 19.9972 55.6758 19.7301C56.1048 19.4631 56.4442 19.0696 56.6942 18.5497C56.9471 18.0298 57.0735 17.392 57.0735 16.6364ZM62.5664 21H59.8732V12.2727H62.6857C63.5323 12.2727 64.2567 12.4474 64.859 12.7969C65.4613 13.1435 65.9229 13.642 66.244 14.2926C66.565 14.9403 66.7255 15.7159 66.7255 16.6193C66.7255 17.5284 66.5636 18.3111 66.2397 18.9673C65.9158 19.6207 65.4442 20.1236 64.8249 20.4759C64.2056 20.8253 63.4528 21 62.5664 21ZM60.93 20.0625H62.4982C63.2198 20.0625 63.8178 19.9233 64.2923 19.6449C64.7667 19.3665 65.1204 18.9702 65.3533 18.456C65.5863 17.9418 65.7028 17.3295 65.7028 16.6193C65.7028 15.9148 65.5877 15.3082 65.3576 14.7997C65.1275 14.2884 64.7837 13.8963 64.3263 13.6236C63.869 13.348 63.2994 13.2102 62.6175 13.2102H60.93V20.0625ZM68.4982 21V12.2727H73.7653V13.2102H69.555V16.1591H73.4925V17.0966H69.555V20.0625H73.8335V21H68.4982ZM75.6701 21V12.2727H76.7269V20.0625H80.7837V21H75.6701Z" fill="white"/>
<path d="M39.999 49C39.7226 49.0006 39.4467 49.0236 39.174 49.0688L38.4465 47.1763C38.9557 47.0594 39.4765 47.0002 39.999 47C40.2642 47 40.5186 46.8946 40.7061 46.7071C40.8936 46.5196 40.999 46.2652 40.999 46C40.999 45.7348 40.8936 45.4804 40.7061 45.2929C40.5186 45.1054 40.2642 45 39.999 45H37.609L35.9327 40.6413C35.8602 40.4525 35.7321 40.2902 35.5654 40.1757C35.3987 40.0612 35.2012 39.9999 34.999 40H30.999C30.7338 40 30.4794 40.1054 30.2919 40.2929C30.1043 40.4804 29.999 40.7348 29.999 41C29.999 41.2652 30.1043 41.5196 30.2919 41.7071C30.4794 41.8946 30.7338 42 30.999 42H34.3127L35.4665 45H31.999C29.6865 45 27.8115 45.5387 26.5777 46.5575C26.2874 46.7917 25.9374 46.9401 25.5671 46.9858C25.1969 47.0315 24.8213 46.9728 24.4827 46.8162C23.1602 46.215 16.8902 43.6662 16.3377 43.45L15.624 43.17C15.4251 43.083 15.2145 43.0258 14.999 43C14.7658 43.0006 14.5402 43.0826 14.3611 43.2318C14.182 43.3811 14.0607 43.5883 14.0182 43.8175C13.9756 44.0467 14.0145 44.2836 14.1281 44.4872C14.2417 44.6908 14.4228 44.8483 14.6402 44.9325C14.6977 44.955 20.539 47.22 23.6565 48.6362C24.3365 48.9456 25.0892 49.0593 25.8302 48.9646C26.5712 48.8698 27.2712 48.5705 27.8515 48.1C28.459 47.6 29.6727 47 32.0002 47H34.3527C32.8929 48.1719 31.8365 49.7712 31.3315 51.5737C31.2105 51.9877 30.9578 52.3509 30.6118 52.6083C30.2658 52.8657 29.8452 53.0032 29.414 53H22.899C22.6512 51.786 21.9614 50.7072 20.9634 49.9728C19.9654 49.2384 18.7303 48.9008 17.4975 49.0253C16.2647 49.1499 15.122 49.7277 14.291 50.6468C13.4601 51.566 13 52.7609 13 54C13 55.2391 13.4601 56.434 14.291 57.3532C15.122 58.2723 16.2647 58.8501 17.4975 58.9747C18.7303 59.0992 19.9654 58.7616 20.9634 58.0272C21.9614 57.2928 22.6512 56.214 22.899 55H29.414C30.2813 55.0019 31.1256 54.7211 31.819 54.2C32.5124 53.679 33.017 52.9461 33.2565 52.1125C33.5059 51.2258 33.9279 50.397 34.4983 49.6737C35.0686 48.9505 35.7761 48.3468 36.5802 47.8975L37.3077 49.7887C36.2942 50.4375 35.5486 51.43 35.2078 52.5841C34.8671 53.7382 34.954 54.9765 35.4526 56.0717C35.9512 57.1669 36.8281 58.0456 37.9223 58.5464C39.0165 59.0472 40.2546 59.1366 41.4094 58.7982C42.5642 58.4597 43.5582 57.7161 44.209 56.7039C44.8597 55.6917 45.1236 54.4787 44.9522 53.2876C44.7807 52.0965 44.1854 51.0072 43.2756 50.2196C42.3657 49.432 41.2024 48.999 39.999 49ZM17.999 55H20.8265C20.5906 55.6672 20.1264 56.2296 19.516 56.5876C18.9056 56.9457 18.1882 57.0765 17.4907 56.9568C16.7933 56.8371 16.1605 56.4747 15.7044 55.9337C15.2482 55.3926 14.9981 54.7077 14.9981 54C14.9981 53.2923 15.2482 52.6074 15.7044 52.0663C16.1605 51.5253 16.7933 51.1629 17.4907 51.0432C18.1882 50.9235 18.9056 51.0543 19.516 51.4124C20.1264 51.7704 20.5906 52.3328 20.8265 53H17.999C17.7338 53 17.4794 53.1054 17.2919 53.2929C17.1043 53.4804 16.999 53.7348 16.999 54C16.999 54.2652 17.1043 54.5196 17.2919 54.7071C17.4794 54.8946 17.7338 55 17.999 55ZM39.999 57C39.3862 56.9992 38.7883 56.8108 38.2858 56.4601C37.7833 56.1095 37.4002 55.6133 37.1881 55.0384C36.976 54.4635 36.9451 53.8374 37.0994 53.2444C37.2538 52.6514 37.586 52.1198 38.0515 51.7213L39.0652 54.3587C39.1604 54.6064 39.35 54.8061 39.5924 54.9139C39.8348 55.0218 40.1101 55.0289 40.3577 54.9338C40.6054 54.8386 40.8051 54.649 40.9129 54.4066C41.0207 54.1642 41.0279 53.8889 40.9327 53.6413L39.9177 51H39.999C40.7946 51 41.5577 51.3161 42.1203 51.8787C42.6829 52.4413 42.999 53.2044 42.999 54C42.999 54.7956 42.6829 55.5587 42.1203 56.1213C41.5577 56.6839 40.7946 57 39.999 57Z" fill="#4451A3"/>
<path d="M60.0568 47.2727H61.3182L64.2841 54.517H64.3864L67.3523 47.2727H68.6136V56H67.625V49.3693H67.5398L64.8125 56H63.858L61.1307 49.3693H61.0455V56H60.0568V47.2727ZM70.2553 48.2102V47.2727H76.8008V48.2102H74.0565V56H72.9996V48.2102H70.2553ZM81.1548 51.1676V52.1051H77.3366V51.1676H81.1548ZM85.7539 56.1193C85.1119 56.1193 84.565 55.9446 84.1133 55.5952C83.6616 55.2429 83.3164 54.733 83.0778 54.0653C82.8391 53.3949 82.7198 52.5852 82.7198 51.6364C82.7198 50.6932 82.8391 49.8878 83.0778 49.2202C83.3192 48.5497 83.6658 48.0384 84.1175 47.6861C84.5721 47.331 85.1175 47.1534 85.7539 47.1534C86.3903 47.1534 86.9343 47.331 87.386 47.6861C87.8406 48.0384 88.1871 48.5497 88.4258 49.2202C88.6673 49.8878 88.788 50.6932 88.788 51.6364C88.788 52.5852 88.6687 53.3949 88.43 54.0653C88.1914 54.733 87.8462 55.2429 87.3945 55.5952C86.9428 55.9446 86.396 56.1193 85.7539 56.1193ZM85.7539 55.1818C86.3903 55.1818 86.8846 54.875 87.2369 54.2614C87.5891 53.6477 87.7653 52.7727 87.7653 51.6364C87.7653 50.8807 87.6843 50.2372 87.5224 49.706C87.3633 49.1747 87.1332 48.7699 86.832 48.4915C86.5337 48.2131 86.1744 48.0739 85.7539 48.0739C85.1232 48.0739 84.6303 48.3849 84.2752 49.0071C83.9201 49.6264 83.7425 50.5028 83.7425 51.6364C83.7425 52.392 83.8221 53.0341 83.9812 53.5625C84.1403 54.0909 84.369 54.4929 84.6673 54.7685C84.9684 55.044 85.3306 55.1818 85.7539 55.1818ZM93.1857 47.1534C93.5437 47.1562 93.9016 47.2244 94.2596 47.358C94.6175 47.4915 94.9442 47.7131 95.2397 48.0227C95.5352 48.3295 95.7724 48.7486 95.9513 49.2798C96.1303 49.8111 96.2198 50.4773 96.2198 51.2784C96.2198 52.054 96.146 52.7429 95.9982 53.3452C95.8533 53.9446 95.6431 54.4503 95.3675 54.8622C95.0948 55.2741 94.7624 55.5866 94.3704 55.7997C93.9812 56.0128 93.5408 56.1193 93.0494 56.1193C92.5607 56.1193 92.1246 56.0227 91.7411 55.8295C91.3604 55.6335 91.0479 55.3622 90.8036 55.0156C90.5621 54.6662 90.4073 54.2614 90.3391 53.8011H91.3789C91.4727 54.2017 91.6587 54.5327 91.9371 54.794C92.2184 55.0526 92.5891 55.1818 93.0494 55.1818C93.7227 55.1818 94.2539 54.8878 94.6431 54.2997C95.0352 53.7116 95.2312 52.8807 95.2312 51.8068H95.163C95.0039 52.0455 94.815 52.2514 94.5962 52.4247C94.3775 52.598 94.1346 52.7315 93.8675 52.8253C93.6005 52.919 93.3164 52.9659 93.0153 52.9659C92.5153 52.9659 92.0565 52.8423 91.6388 52.5952C91.2241 52.3452 90.8917 52.0028 90.6417 51.5682C90.3945 51.1307 90.271 50.6307 90.271 50.0682C90.271 49.5341 90.3903 49.0455 90.6289 48.6023C90.8704 48.1562 91.2085 47.8011 91.6431 47.5369C92.0806 47.2727 92.5948 47.1449 93.1857 47.1534ZM93.1857 48.0909C92.8278 48.0909 92.5053 48.1804 92.2184 48.3594C91.9343 48.5355 91.7085 48.7741 91.5408 49.0753C91.3761 49.3736 91.2937 49.7045 91.2937 50.0682C91.2937 50.4318 91.3732 50.7628 91.5323 51.0611C91.6942 51.3565 91.9144 51.5923 92.1928 51.7685C92.4741 51.9418 92.7937 52.0284 93.1516 52.0284C93.4215 52.0284 93.6729 51.9759 93.9059 51.8707C94.1388 51.7628 94.342 51.6165 94.5153 51.4318C94.6914 51.2443 94.8292 51.0327 94.9286 50.7969C95.0281 50.5582 95.0778 50.3097 95.0778 50.0511C95.0778 49.7102 94.9954 49.3906 94.8306 49.0923C94.6687 48.794 94.4442 48.5526 94.1573 48.3679C93.8732 48.1832 93.5494 48.0909 93.1857 48.0909Z" fill="white"/>
<defs>
<filter id="filter0_d_51_8" x="0" y="0" width="118" height="88" filterUnits="userSpaceOnUse" color-interpolation-filters="sRGB">
<feFlood flood-opacity="0" result="BackgroundImageFix"/>
<feColorMatrix in="SourceAlpha" type="matrix" values="0 0 0 0 0 0 0 0 0 0 0 0 0 0 0 0 0 0 127 0" result="hardAlpha"/>
<feOffset dy="4"/>
<feGaussianBlur stdDeviation="2"/>
<feComposite in2="hardAlpha" operator="out"/>
<feColorMatrix type="matrix" values="0 0 0 0 0 0 0 0 0 0 0 0 0 0 0 0 0 0 0.25 0"/>
<feBlend mode="normal" in2="BackgroundImageFix" result="effect1_dropShadow_51_8"/>
<feBlend mode="normal" in="SourceGraphic" in2="effect1_dropShadow_51_8" result="shape"/>
</filter>
</defs>
</svg>
